<svg width="44" height="44" viewBox="0 0 44 44" fill="none" xmlns="http://www.w3.org/2000/svg">
<g filter="url(#filter0_d_919_15821)">
<circle cx="22" cy="21" r="20" fill="white"/>
<path fill-rule="evenodd" clip-rule="evenodd" d="M26.5013 23.9987C22.3591 23.9987 19.0013 20.6408 19.0013 16.4987C19.0013 15.0762 19.3973 13.7463 20.085 12.613C20.3374 12.1973 19.9844 11.6339 19.5313 11.8107C16.1779 13.1194 13.802 16.3812 13.802 20.198C13.802 25.1685 17.8315 29.198 22.802 29.198C26.6188 29.198 29.8806 26.8221 31.1893 23.4686C31.3661 23.0156 30.8027 22.6626 30.387 22.9149C29.2537 23.6027 27.9237 23.9987 26.5013 23.9987Z" fill="#232324"/>
<path d="M23.5 13L23.5008 14.3613C23.5008 14.4292 23.5671 14.4773 23.6316 14.4564L24.9266 14.0365L23.6321 14.4579C23.5676 14.4789 23.5423 14.5568 23.5822 14.6117L24.3817 15.7135L23.5809 14.6127C23.5409 14.5578 23.4591 14.5578 23.4191 14.6127L22.6183 15.7135L23.4178 14.6117C23.4577 14.5568 23.4324 14.4789 23.3679 14.4579L22.0734 14.0365L23.3684 14.4564C23.4329 14.4773 23.4992 14.4292 23.4992 14.3613L23.5 13Z" fill="#232324"/>
<path d="M24 17L24.0005 17.8617C24.0005 17.9296 24.0668 17.9777 24.1314 17.9568L24.9511 17.691L24.1317 17.9578C24.0671 17.9788 24.0418 18.0566 24.0817 18.1116L24.5878 18.809L24.0809 18.1122C24.0409 18.0573 23.9591 18.0573 23.9191 18.1122L23.4122 18.809L23.9183 18.1116C23.9582 18.0566 23.9329 17.9788 23.8683 17.9578L23.0489 17.691L23.8686 17.9568C23.9332 17.9777 23.9995 17.9296 23.9995 17.8617L24 17Z" fill="#232324"/>
<path d="M27 15L27.0005 15.8617C27.0005 15.9296 27.0668 15.9777 27.1314 15.9568L27.9511 15.691L27.1317 15.9578C27.0671 15.9788 27.0418 16.0566 27.0817 16.1116L27.5878 16.809L27.0809 16.1122C27.0409 16.0573 26.9591 16.0573 26.9191 16.1122L26.4122 16.809L26.9183 16.1116C26.9582 16.0566 26.9329 15.9788 26.8683 15.9578L26.0489 15.691L26.8686 15.9568C26.9332 15.9777 26.9995 15.9296 26.9995 15.8617L27 15Z" fill="#232324"/>
</g>
<defs>
<filter id="filter0_d_919_15821" x="0" y="0" width="44" height="44" filterUnits="userSpaceOnUse" color-interpolation-filters="sRGB">
<feFlood flood-opacity="0" result="BackgroundImageFix"/>
<feColorMatrix in="SourceAlpha" type="matrix" values="0 0 0 0 0 0 0 0 0 0 0 0 0 0 0 0 0 0 127 0" result="hardAlpha"/>
<feOffset dy="1"/>
<feGaussianBlur stdDeviation="1"/>
<feColorMatrix type="matrix" values="0 0 0 0 0 0 0 0 0 0 0 0 0 0 0 0 0 0 0.24 0"/>
<feBlend mode="normal" in2="BackgroundImageFix" result="effect1_dropShadow_919_15821"/>
<feBlend mode="normal" in="SourceGraphic" in2="effect1_dropShadow_919_15821" result="shape"/>
</filter>
</defs>
</svg>
