<svg width="44" height="44" viewBox="0 0 44 44" fill="none" xmlns="http://www.w3.org/2000/svg">
<g filter="url(#filter0_d_3361_4008)">
<circle cx="22.4648" cy="21" r="20" fill="white"/>
<circle cx="22.4648" cy="21" r="4" fill="#232324"/>
<rect x="13.4648" y="20" width="4" height="2" rx="1" fill="#232324"/>
<rect x="27.4648" y="20" width="4" height="2" rx="1" fill="#232324"/>
<rect x="15.3945" y="26.6562" width="4" height="2" rx="1" transform="rotate(-45 15.3945 26.6562)" fill="#232324"/>
<rect x="25.293" y="16.7578" width="4" height="2" rx="1" transform="rotate(-45 25.293 16.7578)" fill="#232324"/>
<rect x="15.3945" y="15.3438" width="2" height="4" rx="1" transform="rotate(-45 15.3945 15.3438)" fill="#232324"/>
<rect x="25.293" y="25.2422" width="2" height="4" rx="1" transform="rotate(-45 25.293 25.2422)" fill="#232324"/>
<rect x="21.4648" y="12" width="2" height="4" rx="1" fill="#232324"/>
<rect x="21.4648" y="26" width="2" height="4" rx="1" fill="#232324"/>
</g>
<defs>
<filter id="filter0_d_3361_4008" x="0.464844" y="0" width="44" height="44" filterUnits="userSpaceOnUse" color-interpolation-filters="sRGB">
<feFlood flood-opacity="0" result="BackgroundImageFix"/>
<feColorMatrix in="SourceAlpha" type="matrix" values="0 0 0 0 0 0 0 0 0 0 0 0 0 0 0 0 0 0 127 0" result="hardAlpha"/>
<feOffset dy="1"/>
<feGaussianBlur stdDeviation="1"/>
<feColorMatrix type="matrix" values="0 0 0 0 0 0 0 0 0 0 0 0 0 0 0 0 0 0 0.24 0"/>
<feBlend mode="normal" in2="BackgroundImageFix" result="effect1_dropShadow_3361_4008"/>
<feBlend mode="normal" in="SourceGraphic" in2="effect1_dropShadow_3361_4008" result="shape"/>
</filter>
</defs>
</svg>
